<svg width="22" height="23" viewBox="0 0 22 23" fill="none" xmlns="http://www.w3.org/2000/svg">
<path d="M14.8141 12.6611C16.6935 11.4447 17.9095 9.34375 17.9095 6.91106C17.9095 3.09615 14.8141 0 11 0C7.18593 0 4.09045 3.09615 4.09045 6.91106C4.09045 9.28846 5.30653 11.3894 7.18593 12.6611C2.98492 14.2091 0 18.2452 0 23H1.82412C1.82412 17.9135 5.91457 13.8221 11 13.8221C16.0854 13.8221 20.1759 17.9135 20.1759 23H22C22 18.2452 19.0151 14.2091 14.8141 12.6611ZM5.96985 6.91106C5.96985 4.14663 8.23618 1.87981 11 1.87981C13.7638 1.87981 16.0301 4.14663 16.0301 6.91106C16.0301 9.67548 13.7638 11.9976 11 11.9976C8.23618 11.9976 5.96985 9.73077 5.96985 6.91106Z" fill="#353535"/>
</svg>
