<svg width="664" height="508" viewBox="0 0 664 508" fill="none" xmlns="http://www.w3.org/2000/svg">
<path fill-rule="evenodd" clip-rule="evenodd" d="M529.387 302.434H290.201C283.224 302.434 277.568 296.775 277.568 289.795V152.171C277.568 145.191 283.224 139.532 290.201 139.532H529.387C536.364 139.532 542.02 145.191 542.02 152.171V289.795C542.02 296.775 536.364 302.434 529.387 302.434Z" fill="#353535"/>
<path fill-rule="evenodd" clip-rule="evenodd" d="M277.569 162.246L251.635 121L347.21 145.419L277.569 162.246Z" fill="#353535"/>
<path fill-rule="evenodd" clip-rule="evenodd" d="M321.625 186.408H497.964V177.24H321.625V186.408Z" fill="#2A2A2A"/>
<path fill-rule="evenodd" clip-rule="evenodd" d="M321.625 212.75H387.357V203.581H321.625V212.75Z" fill="#2A2A2A"/>
<path fill-rule="evenodd" clip-rule="evenodd" d="M403.158 212.75H497.964V203.581H403.158V212.75Z" fill="#2A2A2A"/>
<path fill-rule="evenodd" clip-rule="evenodd" d="M321.625 239.091H430.336V229.922H321.625V239.091Z" fill="#2A2A2A"/>
<path fill-rule="evenodd" clip-rule="evenodd" d="M446.453 239.091H497.964V229.922H446.453V239.091Z" fill="#2A2A2A"/>
<path fill-rule="evenodd" clip-rule="evenodd" d="M321.625 265.431H403.157V256.263H321.625V265.431Z" fill="#2A2A2A"/>
<path fill-rule="evenodd" clip-rule="evenodd" d="M162.706 492.356H150.238L142.445 440.897H170.499L162.706 492.356Z" fill="#61707D"/>
<path fill-rule="evenodd" clip-rule="evenodd" d="M325.59 492.356H313.122L305.33 440.897H333.383L325.59 492.356Z" fill="#61707D"/>
<path fill-rule="evenodd" clip-rule="evenodd" d="M121.126 441.122H356.42V403.92H121.126V441.122Z" fill="#17293D"/>
<path fill-rule="evenodd" clip-rule="evenodd" d="M121.463 437.247H158.866V282.604H121.463V437.247Z" fill="#17293D"/>
<path fill-rule="evenodd" clip-rule="evenodd" d="M172.678 297.858C172.678 315.823 158.122 330.386 140.165 330.386C122.209 330.386 107.652 315.823 107.652 297.858C107.652 279.893 122.209 265.33 140.165 265.33C158.122 265.33 172.678 279.893 172.678 297.858Z" fill="#17293D"/>
<path fill-rule="evenodd" clip-rule="evenodd" d="M319.015 437.247H356.418V282.604H319.015V437.247Z" fill="#17293D"/>
<path fill-rule="evenodd" clip-rule="evenodd" d="M370.229 297.858C370.229 315.823 355.672 330.386 337.716 330.386C319.759 330.386 305.203 315.823 305.203 297.858C305.203 279.893 319.759 265.33 337.716 265.33C355.672 265.33 370.229 279.893 370.229 297.858Z" fill="#17293D"/>
<path fill-rule="evenodd" clip-rule="evenodd" d="M257.535 142.794H220.346C186.391 142.794 158.866 170.332 158.866 204.302V387.109H319.014V204.302C319.014 170.332 291.489 142.794 257.535 142.794Z" fill="#475B99"/>
<path fill-rule="evenodd" clip-rule="evenodd" d="M304.365 365.436H173.515C165.424 365.436 158.866 371.997 158.866 380.091V403.92H319.014V380.091C319.014 371.997 312.455 365.436 304.365 365.436Z" fill="#FFFFFE"/>
<path fill-rule="evenodd" clip-rule="evenodd" d="M216.138 99.7176H219.299C225.469 99.7184 230.471 94.7143 230.471 88.5416L230.472 78.2937L216.138 78.293L216.138 99.7176Z" fill="#17293D"/>
<path fill-rule="evenodd" clip-rule="evenodd" d="M184.943 108.87L201.49 108.871L201.491 87.5711L188.18 87.5703C188.622 94.6207 187.496 101.682 185.089 108.461L184.943 108.87Z" fill="#17293D"/>
<path fill-rule="evenodd" clip-rule="evenodd" d="M407.627 507.358L396.781 507.242L385.973 503.626L386.074 494.176L396.863 499.542L407.682 502.217L407.627 507.358Z" fill="#475B99"/>
<path fill-rule="evenodd" clip-rule="evenodd" d="M382.561 507.091L374.337 507.003L374.474 494.052L386.074 494.176L385.973 503.626L382.561 507.091Z" fill="#475B99"/>
<path fill-rule="evenodd" clip-rule="evenodd" d="M344.572 151.581L349.171 140.121C350.381 137.135 350.29 133.78 348.919 130.865L344.625 121.732C344.347 121.142 343.471 121.283 343.392 121.931L341.923 134.035C341.77 135.294 340.924 136.362 339.732 136.797C337.061 137.775 335.05 140.014 334.363 142.774L333.244 147.263L344.572 151.581Z" fill="#F8D3C6"/>
<path fill-rule="evenodd" clip-rule="evenodd" d="M158.343 318.942L247.404 311.503L265.663 186.442C268.831 163.293 250.947 142.628 227.593 142.454L176.935 142.075C151.734 141.889 133.074 165.455 139.024 189.955L155.062 255.981L158.343 318.942Z" fill="#3DD498"/>
<path fill-rule="evenodd" clip-rule="evenodd" d="M344.572 151.581L333.244 147.263L294.726 196.494L257.603 157.085L235.187 198.121L284.649 234.524C293.823 241.276 306.886 237.769 311.451 227.331L344.572 151.581Z" fill="#3DD498"/>
<path fill-rule="evenodd" clip-rule="evenodd" d="M215.848 121.603H199.599C196.194 121.603 193.433 118.841 193.433 115.433L193.433 83.0107L226.865 83.0115L226.864 110.583C226.864 116.669 221.932 121.604 215.848 121.603Z" fill="#F8D3C6"/>
<path fill-rule="evenodd" clip-rule="evenodd" d="M219.183 142.423L219.768 154.978C220.144 163.05 209.817 166.696 205.045 160.176L191.902 142.22L206.939 142.332L219.183 142.423Z" fill="#F8D3C6"/>
<path fill-rule="evenodd" clip-rule="evenodd" d="M200.289 112.262L215.958 108.802L219.183 142.423L211.333 149.38L191.902 142.219L200.289 112.262Z" fill="#F8D3C6"/>
<path fill-rule="evenodd" clip-rule="evenodd" d="M188.181 87.5703L217.826 87.5711C226.393 87.5711 233.338 80.6229 233.339 72.0515L201.024 72.0508C193.931 72.0508 188.181 77.8034 188.181 84.8996V87.5703Z" fill="#17293D"/>
<path fill-rule="evenodd" clip-rule="evenodd" d="M191.289 100.613C191.289 102.447 192.775 103.935 194.608 103.935C196.441 103.935 197.928 102.447 197.928 100.614C197.928 98.7802 196.442 97.293 194.608 97.293C192.775 97.293 191.289 98.7794 191.289 100.613Z" fill="#F8D3C6"/>
<path fill-rule="evenodd" clip-rule="evenodd" d="M247.404 311.503L264.494 316.787L326.245 333.001C335.264 333.471 342.847 339.937 344.739 348.773L386.074 494.176L374.474 494.052L317.598 365.436H205.221C184.164 365.436 165.874 350.944 161.048 330.439L158.343 318.943L247.404 311.503Z" fill="#DE4C61"/>
<path fill-rule="evenodd" clip-rule="evenodd" d="M360.079 507.358L349.234 507.242L338.426 503.626L338.526 494.176L349.316 499.542L360.134 502.217L360.079 507.358Z" fill="#475B99"/>
<path fill-rule="evenodd" clip-rule="evenodd" d="M335.014 507.091L326.79 507.003L326.928 494.052L338.527 494.176L338.426 503.626L335.014 507.091Z" fill="#475B99"/>
<path fill-rule="evenodd" clip-rule="evenodd" d="M203.818 318.942L278.697 333.001C287.717 333.471 295.299 339.937 297.191 348.773L338.526 494.176L326.927 494.052L270.05 365.436H205.221L203.818 318.942Z" fill="#DE4C61"/>
<path fill-rule="evenodd" clip-rule="evenodd" d="M206.406 254.938L218.744 255.295C221.963 255.378 225.001 256.802 227.125 259.223L233.78 266.808C234.211 267.299 233.731 268.047 233.106 267.86L221.427 264.375C220.212 264.012 218.896 264.362 218.021 265.28C216.059 267.34 213.203 268.291 210.399 267.819L205.84 267.052L206.406 254.938Z" fill="#F8D3C6"/>
<path fill-rule="evenodd" clip-rule="evenodd" d="M205.84 267.052L206.406 254.938L133.775 255.859L176.918 177.049L141.788 163.533L91.3131 268.289C87.4493 276.857 94.5941 286.306 103.886 284.919L205.84 267.052Z" fill="#3DD498"/>
<path fill-rule="evenodd" clip-rule="evenodd" d="M87.7904 436.611L85.6377 435.944C95.1861 405.095 88.6129 378.501 88.5446 378.235L90.7281 377.678C90.7972 377.948 97.5349 405.128 87.7904 436.611Z" fill="#475B99"/>
<path fill-rule="evenodd" clip-rule="evenodd" d="M85.3943 418.004L83.1462 417.845C84.5185 398.322 70.6248 392.381 70.4844 392.323L71.3407 390.237C71.4961 390.301 86.8793 396.874 85.3943 418.004Z" fill="#475B99"/>
<path fill-rule="evenodd" clip-rule="evenodd" d="M127.699 307.194C123.04 342.674 90.7024 381.343 90.6994 381.349C58.4308 367.697 48.9297 347.253 46.3556 340.79C38.9885 322.291 44.8826 301.689 56.6709 260.484C65.1038 231.008 69.4656 216.241 76.6021 214.774C94.8133 211.03 133.72 261.348 127.699 307.194Z" fill="#475B99"/>
<path fill-rule="evenodd" clip-rule="evenodd" d="M40.5116 363.723C53.7367 368.106 62.8029 369.394 68.9577 377.943C72.8065 383.29 73.8581 389.171 74.1442 393.276C74.1442 393.276 47.0382 400.397 27.0092 387.816C8.1536 375.972 -3.01046 352.301 1.61425 347.715C4.92824 344.429 12.87 354.562 40.5116 363.723Z" fill="#475B99"/>
<path fill-rule="evenodd" clip-rule="evenodd" d="M120.634 507.359H54.623L65.35 411.497H109.907L120.634 507.359Z" fill="#3DD498"/>
<path fill-rule="evenodd" clip-rule="evenodd" d="M581.357 285.054H599.375V145.676H581.357V285.054Z" fill="#DE4C61"/>
<path fill-rule="evenodd" clip-rule="evenodd" d="M555.689 93.9188L553.678 89.8841L583.978 74.7688V50.2383H588.484V77.5591L555.689 93.9188Z" fill="#17293D"/>
<path fill-rule="evenodd" clip-rule="evenodd" d="M626.889 146.457H551.839V93.2599C551.839 90.5463 554.037 88.3467 556.75 88.3467H626.889C630.154 88.3467 632.798 90.9949 632.798 94.2608V140.542C632.798 143.809 630.154 146.457 626.889 146.457Z" fill="#475B99"/>
<path fill-rule="evenodd" clip-rule="evenodd" d="M511.886 142.901H545.707V91.9014H511.886V142.901Z" fill="#17293D"/>
<path fill-rule="evenodd" clip-rule="evenodd" d="M488.787 145.676L454.967 168.221V66.583L488.787 89.1274V145.676Z" fill="#17293D"/>
<path fill-rule="evenodd" clip-rule="evenodd" d="M551.679 140.341L545.707 142.901V91.9014L551.679 94.4617V140.341Z" fill="#17293D"/>
<path fill-rule="evenodd" clip-rule="evenodd" d="M511.886 142.836L503.295 145.676V89.127L511.886 91.966V142.836Z" fill="#475B99"/>
<path fill-rule="evenodd" clip-rule="evenodd" d="M488.788 145.676H503.295V89.127H488.788V145.676Z" fill="#475B99"/>
<path fill-rule="evenodd" clip-rule="evenodd" d="M603.113 163.533H555.398C553.432 163.533 551.839 161.939 551.839 159.973V138.161H606.671V159.973C606.671 161.939 605.078 163.533 603.113 163.533Z" fill="#475B99"/>
<path fill-rule="evenodd" clip-rule="evenodd" d="M586.084 0.640625C583.054 0.640625 580.598 3.09796 580.598 6.12868V46.6289C580.598 49.6596 583.054 52.117 586.083 52.117C589.113 52.117 591.569 49.6596 591.569 46.6289V6.12868C591.569 3.09796 589.113 0.640625 586.084 0.640625Z" fill="#F8D3C6"/>
<path fill-rule="evenodd" clip-rule="evenodd" d="M586.083 103.781H550.458C542.226 103.781 535.529 97.0813 535.529 88.8458C535.529 80.6103 542.226 73.9102 550.458 73.9102H585.104V78.419H550.458C544.711 78.419 540.036 83.0962 540.036 88.8458C540.036 94.5954 544.711 99.2726 550.458 99.2726H586.083V103.781Z" fill="#17293D"/>
<path fill-rule="evenodd" clip-rule="evenodd" d="M593.733 76.164C593.733 80.3091 590.374 83.6697 586.231 83.6697C582.088 83.6697 578.729 80.3091 578.729 76.164C578.729 72.0188 582.088 68.6582 586.231 68.6582C590.374 68.6582 593.733 72.0188 593.733 76.164Z" fill="#CDCDD5"/>
<path fill-rule="evenodd" clip-rule="evenodd" d="M595.057 103.781H632.798V99.2725H595.057V103.781Z" fill="#17293D"/>
<path fill-rule="evenodd" clip-rule="evenodd" d="M587.362 507.359H593.371V290.639H587.362V507.359Z" fill="#61707D"/>
<path fill-rule="evenodd" clip-rule="evenodd" d="M524.704 501.774L518.894 500.241L574.141 290.688L579.951 292.222L524.704 501.774Z" fill="#61707D"/>
<path fill-rule="evenodd" clip-rule="evenodd" d="M657.518 504.541L602.273 294.988L608.083 293.455L663.332 503.008L657.518 504.541Z" fill="#61707D"/>
<path fill-rule="evenodd" clip-rule="evenodd" d="M568.631 296.222H612.103V285.055H568.631V296.222Z" fill="#CDCDD5"/>
<path fill-rule="evenodd" clip-rule="evenodd" d="M528.031 273.416L498.428 324.208L467.896 315.274L528.031 273.416Z" fill="#3DD498"/>
<path fill-rule="evenodd" clip-rule="evenodd" d="M528.031 273.416L498.428 324.208L521.239 346.393L528.031 273.416Z" fill="#475B99"/>
<path fill-rule="evenodd" clip-rule="evenodd" d="M52.1926 138.34L50.1886 137.309C51.567 134.629 53.0324 131.95 54.5437 129.349L56.4914 130.482C54.9996 133.05 53.5529 135.693 52.1926 138.34ZM44.8308 154.667L42.7321 153.846C43.8311 151.036 45.0141 148.221 46.2489 145.482L48.3033 146.409C47.0842 149.113 45.9154 151.892 44.8308 154.667ZM39.144 171.655L36.9755 171.045C37.7935 168.132 38.6903 165.215 39.6412 162.375L41.7782 163.091C40.8393 165.896 39.953 168.778 39.144 171.655ZM35.1172 189.118L32.9006 188.713C33.4437 185.732 34.0603 182.743 34.7311 179.832L36.9267 180.339C36.2634 183.217 35.655 186.171 35.1172 189.118ZM32.6828 206.882L30.4384 206.671C30.7208 203.656 31.0693 200.626 31.4742 197.666L33.7066 197.972C33.3062 200.901 32.9614 203.898 32.6828 206.882ZM31.7348 224.795L29.4814 224.764C29.5235 221.731 29.6234 218.685 29.7796 215.709L32.0308 215.827C31.8753 218.774 31.7762 221.791 31.7348 224.795ZM29.8998 242.872C29.7226 239.846 29.5971 236.802 29.5273 233.822L31.7799 233.77C31.849 236.722 31.9729 239.74 32.1495 242.739L29.8998 242.872ZM31.5576 260.901C31.185 257.901 30.8568 254.873 30.5819 251.901L32.8262 251.693C33.0981 254.642 33.4241 257.646 33.7944 260.623L31.5576 260.901ZM34.3232 278.786C33.7734 275.801 33.2649 272.8 32.8105 269.864L35.0368 269.519C35.4882 272.434 35.993 275.414 36.5391 278.378L34.3232 278.786ZM38.0714 296.485C37.3661 293.532 36.6961 290.564 36.0816 287.661L38.2862 287.194C38.8969 290.077 39.5624 293.027 40.2632 295.961L38.0714 296.485Z" fill="#61707D"/>
<path fill-rule="evenodd" clip-rule="evenodd" d="M257.293 459.353C235.6 459.353 213.448 456.304 193.161 450.335C154.225 438.878 122.525 417.242 101.489 387.765L103.323 386.455C147.953 448.995 231.704 465.351 294.912 453.817L295.316 456.035C283.145 458.256 270.299 459.353 257.293 459.353Z" fill="#61707D"/>
<path fill-rule="evenodd" clip-rule="evenodd" d="M488.516 337.927L486.852 336.406C490.7 332.191 492.782 329.691 492.803 329.665L494.536 331.106C494.515 331.132 492.404 333.668 488.516 337.927ZM476.002 351.006L474.408 349.412C476.545 347.274 478.662 345.109 480.703 342.978L482.33 344.538C480.278 346.68 478.15 348.856 476.002 351.006ZM462.975 363.556L461.444 361.902C463.642 359.864 465.843 357.783 467.986 355.72L469.549 357.344C467.396 359.417 465.185 361.507 462.975 363.556ZM449.485 375.602L448.017 373.892C450.273 371.952 452.551 369.957 454.786 367.96L456.287 369.643C454.041 371.648 451.753 373.654 449.485 375.602ZM435.549 387.128L434.147 385.363C436.475 383.512 438.827 381.605 441.137 379.695L442.572 381.432C440.251 383.352 437.888 385.268 435.549 387.128ZM421.17 398.096L419.841 396.276C422.234 394.527 424.659 392.716 427.049 390.892L428.415 392.685C426.014 394.517 423.576 396.339 421.17 398.096ZM406.346 408.458L405.096 406.583C407.564 404.936 410.063 403.229 412.523 401.509L413.815 403.357C411.34 405.086 408.829 406.803 406.346 408.458ZM391.074 418.149L389.912 416.217C392.446 414.692 395.018 413.101 397.559 411.488L398.767 413.392C396.21 415.014 393.623 416.615 391.074 418.149ZM380.756 424.133L379.658 422.165C380.494 421.699 381.326 421.23 382.154 420.759L383.268 422.718C382.435 423.193 381.597 423.664 380.756 424.133Z" fill="#61707D"/>
</svg>
