<svg width="63" height="63" viewBox="0 0 63 63" fill="none" xmlns="http://www.w3.org/2000/svg">
<circle opacity="0.05" cx="31.5" cy="31.5" r="31.5" fill="#3DD498"/>
<path d="M32.1451 34.3062C35.6064 34.3062 38.2257 29.2078 38.2257 25.8868V24.811L35.8403 21.8643C35.8403 21.8643 33.9225 25.4659 29.5257 24.9514L26.0645 24.4368V25.9336C26.0645 29.2078 28.6838 34.3062 32.1451 34.3062ZM26.9999 25.5126L29.3854 25.8868C31.8177 26.261 34.2967 25.2788 35.887 23.4078L37.2903 25.1385V25.8868C37.2903 28.7868 34.9515 33.3707 32.1451 33.3707C29.3386 33.3707 26.9999 28.7868 26.9999 25.8868V25.5126Z" fill="#3DD498"/>
<path d="M44.1196 37.5339C43.9325 36.5984 43.4648 35.2419 41.9213 34.1661L40.0971 23.221C39.2084 19.5726 35.9342 17 32.1455 17C28.3567 17 25.0825 19.5726 24.1938 23.3145L22.4164 34.1661C21.2471 34.9145 20.4987 36.1306 20.218 37.5339C19.5164 40.8548 20.7325 44.3629 20.7325 44.3629C20.7325 44.3629 25.7374 46 32.1455 46C38.5535 46 43.6051 44.3629 43.6051 44.3629C43.6051 44.3629 44.7745 40.5274 44.1196 37.5339ZM25.0825 23.5016C25.8777 20.2274 28.7777 17.9355 32.1455 17.9355C35.5132 17.9355 38.4132 20.2274 39.2084 23.4548L40.8922 33.6984C38.7406 32.9968 36.8229 32.7161 36.8229 32.7161L32.1455 38.7032L27.468 32.7161C27.468 32.7161 24.568 33.1839 23.3987 33.6984L25.0825 23.5016ZM42.81 43.6145C35.8874 45.579 28.4035 45.579 21.4809 43.6145C21.4809 43.6145 20.5455 40.5742 21.1067 37.721C21.3874 36.1774 21.9487 34.5403 27.0938 33.7452L32.1455 40.2468L37.1971 33.7452C41.6406 34.4935 42.7632 35.7565 43.1842 37.721C43.7922 40.4339 42.81 43.6145 42.81 43.6145Z" fill="#3DD498"/>
<path d="M36.8228 41.7908H41.5002V38.5166H36.8228V41.7908ZM37.7582 39.4521H40.5647V40.8553H37.7582V39.4521Z" fill="#3DD498"/>
</svg>
